<svg width="13" height="23" viewBox="0 0 13 23" fill="none" xmlns="http://www.w3.org/2000/svg">
<path d="M7.572 17.684C8.42 17.572 9.06 17.288 9.492 16.832C9.932 16.368 10.152 15.764 10.152 15.02C10.152 14.716 10.096 14.452 9.984 14.228C9.88 13.996 9.728 13.792 9.528 13.616C9.336 13.44 9.108 13.288 8.844 13.16C8.58 13.032 8.292 12.912 7.98 12.8L7.572 17.684ZM6.804 5C6.356 5.056 5.976 5.152 5.664 5.288C5.352 5.416 5.096 5.576 4.896 5.768C4.696 5.96 4.548 6.176 4.452 6.416C4.364 6.656 4.32 6.908 4.32 7.172C4.32 7.476 4.372 7.744 4.476 7.976C4.588 8.2 4.736 8.404 4.92 8.588C5.112 8.764 5.336 8.924 5.592 9.068C5.848 9.204 6.128 9.332 6.432 9.452L6.804 5ZM8.208 10.028C8.784 10.204 9.356 10.4 9.924 10.616C10.492 10.824 11 11.096 11.448 11.432C11.904 11.768 12.272 12.188 12.552 12.692C12.832 13.188 12.972 13.812 12.972 14.564C12.972 15.308 12.848 16.008 12.6 16.664C12.352 17.312 11.988 17.888 11.508 18.392C11.028 18.888 10.44 19.296 9.744 19.616C9.048 19.928 8.252 20.112 7.356 20.168L7.212 21.932C7.204 22.116 7.124 22.284 6.972 22.436C6.828 22.596 6.644 22.676 6.42 22.676H5.328L5.544 20.108C4.608 19.98 3.728 19.724 2.904 19.34C2.08 18.956 1.38 18.48 0.804 17.912L1.716 16.556C1.796 16.436 1.9 16.34 2.028 16.268C2.164 16.188 2.308 16.148 2.46 16.148C2.636 16.148 2.824 16.212 3.024 16.34C3.224 16.46 3.452 16.604 3.708 16.772C3.964 16.932 4.256 17.096 4.584 17.264C4.912 17.432 5.3 17.556 5.748 17.636L6.192 12.272C5.624 12.112 5.06 11.924 4.5 11.708C3.948 11.492 3.448 11.208 3 10.856C2.56 10.496 2.204 10.044 1.932 9.5C1.66 8.956 1.524 8.276 1.524 7.46C1.524 6.852 1.644 6.26 1.884 5.684C2.124 5.1 2.476 4.58 2.94 4.124C3.412 3.668 3.988 3.292 4.668 2.996C5.348 2.7 6.128 2.532 7.008 2.492L7.14 0.98C7.156 0.787999 7.236 0.615999 7.38 0.464C7.524 0.311999 7.712 0.235999 7.944 0.235999H9.036L8.844 2.588C9.692 2.724 10.424 2.968 11.04 3.32C11.656 3.664 12.188 4.052 12.636 4.484L11.916 5.576C11.812 5.736 11.704 5.856 11.592 5.936C11.48 6.016 11.344 6.056 11.184 6.056C11.064 6.056 10.92 6.02 10.752 5.948C10.584 5.868 10.396 5.776 10.188 5.672C9.98 5.56 9.744 5.448 9.48 5.336C9.224 5.224 8.94 5.132 8.628 5.06L8.208 10.028Z" fill="white"/>
</svg>
